# xmcd CD database file
#
# Track frame offsets:
#	150
#	20836
#	36761
#	56606
#	76725
#	95224
#	112068
#	129117
#	144838
#	161725
#	178747
#	197403
#	210040
#	228976
#	249142
#
# Disc length: 3517 seconds
#
# Revision: 8
# Processed by: cddbd v1.5.1PL0 Copyright (c) Steve Scherf et al.
# Submitted via: CDex 1.51
#
DISCID=bb0dbb0f
DTITLE=Zezé Di Camargo and Luciano - Preciso de Um Tempo
DYEAR=2002
DGENRE=Country
TTITLE0=Preciso de um Tempo
TTITLE1=Aonde Você Foi Parar?
TTITLE2=Baby Come Back
TTITLE3=Chamando Seu Nome
TTITLE4=Sou Assim
TTITLE5=Balançou
TTITLE6=Eu Era Assim
TTITLE7=Imprevisível
TTITLE8=A Ferro e Fogo
TTITLE9=Rio e Nova York
TTITLE10=Um Dia a Mais
TTITLE11=Só Amor pra Ela
TTITLE12=Conflito
TTITLE13=Sufocado
TTITLE14=Coração de Vidro
EXTD=YEAR: 2002
EXTT0=
EXTT1=
EXTT2=
EXTT3=
EXTT4=
EXTT5=
EXTT6=
EXTT7=
EXTT8=
EXTT9=
EXTT10=
EXTT11=
EXTT12=
EXTT13=
EXTT14=
PLAYORDER=
